<svg width="84" height="16" viewBox="0 0 84 16" fill="none" xmlns="http://www.w3.org/2000/svg">
<path d="M12.6688 12.2559L8.49883 0.898438H6.39922L2.23906 12.1973C1.65313 13.7598 1.42852 13.9941 0.14922 14.1406V15H4.84649V14.1406C3.28399 13.9453 3.08867 13.6816 3.58672 12.2363L4.28008 10.2441H9.26055L9.96367 12.2363C10.4617 13.6719 10.2664 13.9453 8.70391 14.1406V15H14.7391V14.1406C13.5086 13.9941 13.2352 13.7598 12.6688 12.2559ZM4.65117 9.18945L6.76055 3.10547L8.88945 9.18945H4.65117ZM30.1176 10.8789C30.1176 8.73047 28.4184 7.53906 25.9672 7.31445C27.9008 7.08008 29.3559 6.03516 29.3559 4.31641C29.3559 2.20703 27.4906 0.898438 24.1215 0.898438H17.7152V1.75781C19.2289 1.9043 19.3949 2.08984 19.3949 2.95898V12.9395C19.3949 13.8086 19.2289 13.9941 17.7152 14.1406V15H24.1215C27.4906 15 30.1176 13.5547 30.1176 10.8789ZM26.6996 4.61914C26.6996 6.16211 25.6547 7.13867 23.6234 7.13867H21.9828V1.88477L23.3305 1.93359C25.7133 2.01172 26.6996 3.00781 26.6996 4.61914ZM27.3539 11.0645C27.3539 13.0371 25.7719 13.8867 23.3305 13.9648L21.9828 14.0137V8.13477H23.6234C26.016 8.13477 27.3539 9.14062 27.3539 11.0645ZM34.4023 7.95898C34.4023 12.5 37.8496 15.3027 41.6387 15.3027C46.0723 15.3027 48.9336 12.0508 48.9336 7.93945C48.9336 3.39844 45.4766 0.595703 41.6973 0.595703C37.2637 0.595703 34.4023 3.84766 34.4023 7.95898ZM37.2734 7.76367C37.2734 4.50195 38.5234 1.80664 41.541 1.80664C44.3438 1.80664 46.0625 4.72656 46.0625 8.13477C46.0625 11.3965 44.8125 14.0918 41.7949 14.0918C38.9824 14.0918 37.2734 11.1719 37.2734 7.76367ZM54.1461 2.91016V9.83398C54.1461 13.4961 56.8902 15.3027 59.859 15.3027C63.4234 15.3027 65.6793 13.1348 65.7086 9.62891L65.7672 3.04688C65.777 2.11914 65.9527 1.91406 67.359 1.76758V0.898438H62.7398V1.75781C64.2535 1.9043 64.4 2.10938 64.4098 3.06641L64.4586 9.4043C64.4781 12.2559 63.0133 13.6621 60.6305 13.6621C58.4137 13.6621 56.734 12.2656 56.734 9.59961V2.95898C56.734 2.08984 56.8902 1.9043 58.4039 1.75781V0.898438H52.5641V1.75781C53.9605 1.9043 54.1461 2.07031 54.1461 2.91016ZM83.1574 0.898438H70.7355L70.6281 4.54102H71.4191C71.8195 2.32422 72.4738 1.99219 75.091 1.9043L75.6477 1.88477V12.8027C75.6477 13.75 75.4426 13.9844 73.841 14.1406V15H80.052V14.1406C78.4406 13.9844 78.2355 13.75 78.2355 12.8027V1.88477L78.802 1.9043C81.4191 1.99219 82.0734 2.32422 82.4641 4.54102H83.2648L83.1574 0.898438Z" fill="black"/>
</svg>
