<svg width="65" height="16" viewBox="0 0 65 16" fill="none" xmlns="http://www.w3.org/2000/svg">
<path d="M12.5113 10.8789C12.5113 8.73047 10.8121 7.53906 8.36094 7.31445C10.2945 7.08008 11.7496 6.03516 11.7496 4.31641C11.7496 2.20703 9.88438 0.898438 6.51524 0.898438H0.108986V1.75781C1.62266 1.9043 1.78867 2.08984 1.78867 2.95898V12.9395C1.78867 13.8086 1.62266 13.9941 0.108986 14.1406V15H6.51524C9.88438 15 12.5113 13.5547 12.5113 10.8789ZM9.09336 4.61914C9.09336 6.16211 8.04844 7.13867 6.01719 7.13867H4.37656V1.88477L5.72422 1.93359C8.10703 2.01172 9.09336 3.00781 9.09336 4.61914ZM9.74766 11.0645C9.74766 13.0371 8.16563 13.8867 5.72422 13.9648L4.37656 14.0137V8.13477H6.01719C8.40977 8.13477 9.74766 9.14062 9.74766 11.0645ZM27.0598 15L27.2063 10.5566H26.4055C25.7512 13.4961 24.9504 13.8672 22.8215 13.9355L20.7023 14.0137V3.04688C20.7023 2.12891 20.9074 1.91406 22.5188 1.75781V0.898438H16.4348V1.75781C17.9484 1.9043 18.1145 2.08984 18.1145 2.95898V12.9395C18.1145 13.8086 17.9484 13.9941 16.4348 14.1406V15H27.0598ZM31.1297 7.95898C31.1297 12.5 34.577 15.3027 38.366 15.3027C42.7996 15.3027 45.6609 12.0508 45.6609 7.93945C45.6609 3.39844 42.2039 0.595703 38.4246 0.595703C33.991 0.595703 31.1297 3.84766 31.1297 7.95898ZM34.0008 7.76367C34.0008 4.50195 35.2508 1.80664 38.2684 1.80664C41.0711 1.80664 42.7898 4.72656 42.7898 8.13477C42.7898 11.3965 41.5398 14.0918 38.5223 14.0918C35.7098 14.0918 34.0008 11.1719 34.0008 7.76367ZM50.0727 7.95898C50.0727 12.5195 53.5004 15.3027 57.5141 15.3027C59.5453 15.3027 61.5082 14.7656 62.6313 14.0137V10.2344C62.6313 9.375 62.7777 9.22852 64.2914 9.08203V8.23242H58.4516V9.08203C60.1508 9.22852 60.2875 9.36523 60.2875 10.2148V13.4766C59.7113 13.877 58.852 14.0918 57.7875 14.0918C54.9359 14.0918 52.9438 11.4453 52.9438 7.70508C52.9438 4.20898 54.6723 1.80664 57.768 1.80664C59.7406 1.80664 60.9906 2.63672 61.557 4.88281H62.3578L62.2406 1.69922C61.3617 1.06445 59.6527 0.595703 57.5141 0.595703C53.266 0.595703 50.0727 3.36914 50.0727 7.95898Z" fill="black"/>
</svg>
