<svg width="70" height="16" viewBox="0 0 70 16" fill="none" xmlns="http://www.w3.org/2000/svg">
<path d="M11.6082 15L11.7547 10.5566H10.9539C10.2996 13.4961 9.49883 13.8672 7.36992 13.9355L5.25078 14.0137V3.04688C5.25078 2.12891 5.45586 1.91406 7.06719 1.75781V0.898438H0.983204V1.75781C2.49688 1.9043 2.66289 2.08984 2.66289 2.95898V12.9395C2.66289 13.8086 2.49688 13.9941 0.983204 14.1406V15H11.6082ZM19.5844 12.9395V2.95898C19.5844 2.08984 19.7406 1.9043 21.2543 1.75781V0.898438H15.3168V1.75781C16.8305 1.9043 16.9965 2.08984 16.9965 2.95898V12.9395C16.9965 13.8086 16.8305 13.9941 15.3168 14.1406V15H21.2543V14.1406C19.7406 13.9941 19.5844 13.8086 19.5844 12.9395ZM28.9375 0.898438H24.709V1.75781C26.125 1.92383 26.3008 2.14844 26.3008 3.18359L26.2617 12.832C26.2617 13.7793 26.0957 13.9648 24.6797 14.1406V15H29.2988V14.1406C27.8145 13.9941 27.6387 13.8086 27.6289 12.8027L27.4434 3.35938L35.168 15H37.8047L37.873 3.06641C37.8828 2.11914 38.0391 1.93359 39.4453 1.75781V0.898438H34.8359V1.75781C36.3105 1.9043 36.4863 2.08984 36.4961 3.0957L36.6816 12.5781L28.9375 0.898438ZM47.1578 12.9883V8.23242H48.7887L52.9977 15H56.318V14.1992C55.5465 13.9844 55.068 13.4961 53.7594 11.4258L50.6441 6.46484L52.8414 4.02344C54.3551 2.34375 54.8336 1.97266 56.1324 1.75781V0.898438H51.0348V1.75781C52.6168 1.88477 52.7926 2.25586 51.7965 3.49609L48.7594 7.2168H47.1578V2.91992C47.1578 2.08008 47.3336 1.91406 48.7398 1.76758V0.898438H42.8902V1.75781C44.4039 1.9043 44.5699 2.08984 44.5699 2.95898V12.9395C44.5699 13.8086 44.4039 13.9941 42.8902 14.1406V15H48.7398V14.1406C47.3336 13.9941 47.1578 13.8281 47.1578 12.9883ZM64.4406 15.3027C67.3801 15.3027 69.6945 13.6426 69.6945 11.0352C69.6945 8.99414 68.5129 7.64648 65.8469 6.80664L64.7141 6.45508C63.0734 5.9375 62.1652 5.27344 62.1652 4.02344C62.1652 2.72461 63.1125 1.80664 64.9191 1.80664C66.6281 1.80664 67.9465 2.72461 68.3469 4.82422H69.1379L69.0305 1.70898C68.2785 1.10352 66.7551 0.595703 64.9582 0.595703C61.7258 0.595703 59.7238 2.28516 59.7238 4.62891C59.7238 6.62109 61.0812 7.96875 63.5422 8.73047L64.675 9.0918C66.4328 9.64844 67.2531 10.4688 67.2531 11.7773C67.2531 13.1348 66.1789 14.0918 64.4602 14.0918C62.5461 14.0918 60.9445 13.0859 60.4562 10.9375H59.6555L59.7727 14.0625C60.6711 14.7656 62.4582 15.3027 64.4406 15.3027Z" fill="black"/>
</svg>
