<svg width="119" height="19" viewBox="0 0 119 19" fill="none" xmlns="http://www.w3.org/2000/svg">
<path d="M11.9203 5.12695C11.9203 2.29492 9.61562 0.898438 5.93398 0.898438H0.0257797V1.75781C1.53945 1.9043 1.70547 2.08984 1.70547 2.95898V12.9395C1.70547 13.8086 1.53945 13.9941 0.0257797 14.1406V15H6.10976V14.1406C4.49844 13.9844 4.29336 13.75 4.29336 12.8027V9.61914H5.93398C9.48867 9.61914 11.9203 8.03711 11.9203 5.12695ZM9.1664 5.2832C9.1664 7.42188 7.83828 8.47656 5.14297 8.59375L4.29336 8.62305V1.88477L5.14297 1.92383C7.83828 2.03125 9.1664 3.20312 9.1664 5.2832ZM27.6113 4.74609C27.6113 2.37305 25.7266 0.898438 21.9863 0.898438H15.8633V1.75781C17.377 1.9043 17.543 2.08984 17.543 2.95898V12.9395C17.543 13.8086 17.377 13.9941 15.8633 14.1406V15H21.7129V14.1406C20.3066 13.9941 20.1309 13.8281 20.1309 12.9883V8.85742H22.3867L25.6875 15H28.7637V14.1992C28.168 14.0527 27.709 13.7012 26.5176 11.543L24.7305 8.21289C26.4687 7.75391 27.6211 6.48438 27.6113 4.74609ZM24.9746 4.95117C24.9746 6.82617 23.7344 7.77344 21.459 7.8418L20.1309 7.88086V1.88477L21.2441 1.92383C23.7539 2.01172 24.9746 3.06641 24.9746 4.95117ZM32.1598 7.95898C32.1598 12.5 35.607 15.3027 39.3961 15.3027C43.8297 15.3027 46.691 12.0508 46.691 7.93945C46.691 3.39844 43.234 0.595703 39.4547 0.595703C35.0211 0.595703 32.1598 3.84766 32.1598 7.95898ZM35.0309 7.76367C35.0309 4.50195 36.2809 1.80664 39.2984 1.80664C42.1012 1.80664 43.8199 4.72656 43.8199 8.13477C43.8199 11.3965 42.5699 14.0918 39.5523 14.0918C36.7398 14.0918 35.0309 11.1719 35.0309 7.76367ZM54.8137 12.4609V2.95898C54.8137 2.08984 54.9699 1.9043 56.4836 1.75781V0.898438H50.5461V1.75781C52.0598 1.9043 52.2258 2.08984 52.2258 2.95898V12.1973C52.2258 15.2637 51.4836 16.6699 49.3156 18.1055L49.7062 18.8477C53.007 17.2461 54.8137 15.8301 54.8137 12.4609ZM71.1297 0.898438H60.1727V1.75781C61.6863 1.9043 61.8523 2.08984 61.8523 2.95898V12.9395C61.8523 13.8086 61.6863 13.9941 60.1727 14.1406V15H71.5691L71.7059 10.9082H70.9051C70.3875 13.5742 69.7918 13.8379 67.077 13.9258L64.4402 14.0137V8.28125H67.0672C67.7508 8.28125 67.9949 8.56445 68.2879 10.2441H69.0398V5.33203H68.2879C67.9363 7.03125 67.7215 7.28516 67.0672 7.28516H64.4402V1.88477L67.0477 1.97266C69.2742 2.04102 69.948 2.45117 70.4363 4.54102H71.2371L71.1297 0.898438ZM75.8832 7.95898C75.8832 12.5293 79.3109 15.3027 83.3246 15.3027C85.2777 15.3027 87.2113 14.7168 88.1098 14.0625L88.227 10.8691H87.4262C86.8695 13.3301 85.5707 14.0918 83.5785 14.0918C80.7465 14.0918 78.7543 11.4453 78.7543 7.70508C78.7543 4.20898 80.4926 1.80664 83.5785 1.80664C85.5609 1.80664 86.8109 2.63672 87.3676 4.88281H88.1586L88.0512 1.69922C87.1723 1.06445 85.4633 0.595703 83.3246 0.595703C79.0766 0.595703 75.8832 3.36914 75.8832 7.95898ZM104.582 0.898438H92.1602L92.0527 4.54102H92.8438C93.2441 2.32422 93.8984 1.99219 96.5156 1.9043L97.0723 1.88477V12.8027C97.0723 13.75 96.8672 13.9844 95.2656 14.1406V15H101.477V14.1406C99.8652 13.9844 99.6602 13.75 99.6602 12.8027V1.88477L100.227 1.9043C102.844 1.99219 103.498 2.32422 103.889 4.54102H104.689L104.582 0.898438ZM113.398 15.3027C116.338 15.3027 118.652 13.6426 118.652 11.0352C118.652 8.99414 117.47 7.64648 114.804 6.80664L113.671 6.45508C112.031 5.9375 111.123 5.27344 111.123 4.02344C111.123 2.72461 112.07 1.80664 113.877 1.80664C115.586 1.80664 116.904 2.72461 117.304 4.82422H118.095L117.988 1.70898C117.236 1.10352 115.713 0.595703 113.916 0.595703C110.683 0.595703 108.681 2.28516 108.681 4.62891C108.681 6.62109 110.039 7.96875 112.5 8.73047L113.632 9.0918C115.39 9.64844 116.211 10.4688 116.211 11.7773C116.211 13.1348 115.136 14.0918 113.418 14.0918C111.504 14.0918 109.902 13.0859 109.414 10.9375H108.613L108.73 14.0625C109.629 14.7656 111.416 15.3027 113.398 15.3027Z" fill="black"/>
</svg>
